# Blender 5.1.2
# www.blender.org
mtllib SM_Cylinder.mtl
o Cylinder
v 0.000000 -0.500000 -0.500000
v 0.000000 0.500000 -0.500000
v 0.032702 -0.500000 -0.498929
v 0.032702 0.500000 -0.498929
v 0.065263 -0.500000 -0.495722
v 0.065263 0.500000 -0.495722
v 0.097545 -0.500000 -0.490393
v 0.097545 0.500000 -0.490393
v 0.129410 -0.500000 -0.482963
v 0.129410 0.500000 -0.482963
v 0.160720 -0.500000 -0.473465
v 0.160720 0.500000 -0.473465
v 0.191342 -0.500000 -0.461940
v 0.191342 0.500000 -0.461940
v 0.221144 -0.500000 -0.448436
v 0.221144 0.500000 -0.448436
v 0.250000 -0.500000 -0.433013
v 0.250000 0.500000 -0.433013
v 0.277785 -0.500000 -0.415735
v 0.277785 0.500000 -0.415735
v 0.304381 -0.500000 -0.396677
v 0.304381 0.500000 -0.396677
v 0.329673 -0.500000 -0.375920
v 0.329673 0.500000 -0.375920
v 0.353553 -0.500000 -0.353553
v 0.353553 0.500000 -0.353553
v 0.375920 -0.500000 -0.329673
v 0.375920 0.500000 -0.329673
v 0.396677 -0.500000 -0.304381
v 0.396677 0.500000 -0.304381
v 0.415735 -0.500000 -0.277785
v 0.415735 0.500000 -0.277785
v 0.433013 -0.500000 -0.250000
v 0.433013 0.500000 -0.250000
v 0.448436 -0.500000 -0.221144
v 0.448436 0.500000 -0.221144
v 0.461940 -0.500000 -0.191342
v 0.461940 0.500000 -0.191342
v 0.473465 -0.500000 -0.160720
v 0.473465 0.500000 -0.160720
v 0.482963 -0.500000 -0.129410
v 0.482963 0.500000 -0.129410
v 0.490393 -0.500000 -0.097545
v 0.490393 0.500000 -0.097545
v 0.495722 -0.500000 -0.065263
v 0.495722 0.500000 -0.065263
v 0.498929 -0.500000 -0.032702
v 0.498929 0.500000 -0.032702
v 0.500000 -0.500000 0.000000
v 0.500000 0.500000 0.000000
v 0.498929 -0.500000 0.032702
v 0.498929 0.500000 0.032702
v 0.495722 -0.500000 0.065263
v 0.495722 0.500000 0.065263
v 0.490393 -0.500000 0.097545
v 0.490393 0.500000 0.097545
v 0.482963 -0.500000 0.129410
v 0.482963 0.500000 0.129410
v 0.473465 -0.500000 0.160720
v 0.473465 0.500000 0.160720
v 0.461940 -0.500000 0.191342
v 0.461940 0.500000 0.191342
v 0.448436 -0.500000 0.221144
v 0.448436 0.500000 0.221144
v 0.433013 -0.500000 0.250000
v 0.433013 0.500000 0.250000
v 0.415735 -0.500000 0.277785
v 0.415735 0.500000 0.277785
v 0.396677 -0.500000 0.304381
v 0.396677 0.500000 0.304381
v 0.375920 -0.500000 0.329673
v 0.375920 0.500000 0.329673
v 0.353553 -0.500000 0.353553
v 0.353553 0.500000 0.353553
v 0.329673 -0.500000 0.375920
v 0.329673 0.500000 0.375920
v 0.304381 -0.500000 0.396677
v 0.304381 0.500000 0.396677
v 0.277785 -0.500000 0.415735
v 0.277785 0.500000 0.415735
v 0.250000 -0.500000 0.433013
v 0.250000 0.500000 0.433013
v 0.221144 -0.500000 0.448436
v 0.221144 0.500000 0.448436
v 0.191342 -0.500000 0.461940
v 0.191342 0.500000 0.461940
v 0.160720 -0.500000 0.473465
v 0.160720 0.500000 0.473465
v 0.129410 -0.500000 0.482963
v 0.129410 0.500000 0.482963
v 0.097545 -0.500000 0.490393
v 0.097545 0.500000 0.490393
v 0.065263 -0.500000 0.495722
v 0.065263 0.500000 0.495722
v 0.032702 -0.500000 0.498929
v 0.032702 0.500000 0.498929
v 0.000000 -0.500000 0.500000
v 0.000000 0.500000 0.500000
v -0.032702 -0.500000 0.498929
v -0.032702 0.500000 0.498929
v -0.065263 -0.500000 0.495722
v -0.065263 0.500000 0.495722
v -0.097545 -0.500000 0.490393
v -0.097545 0.500000 0.490393
v -0.129410 -0.500000 0.482963
v -0.129410 0.500000 0.482963
v -0.160720 -0.500000 0.473465
v -0.160720 0.500000 0.473465
v -0.191342 -0.500000 0.461940
v -0.191342 0.500000 0.461940
v -0.221144 -0.500000 0.448436
v -0.221144 0.500000 0.448436
v -0.250000 -0.500000 0.433013
v -0.250000 0.500000 0.433013
v -0.277785 -0.500000 0.415735
v -0.277785 0.500000 0.415735
v -0.304381 -0.500000 0.396677
v -0.304381 0.500000 0.396677
v -0.329673 -0.500000 0.375920
v -0.329673 0.500000 0.375920
v -0.353553 -0.500000 0.353553
v -0.353553 0.500000 0.353553
v -0.375920 -0.500000 0.329673
v -0.375920 0.500000 0.329673
v -0.396677 -0.500000 0.304381
v -0.396677 0.500000 0.304381
v -0.415735 -0.500000 0.277785
v -0.415735 0.500000 0.277785
v -0.433013 -0.500000 0.250000
v -0.433013 0.500000 0.250000
v -0.448436 -0.500000 0.221144
v -0.448436 0.500000 0.221144
v -0.461940 -0.500000 0.191342
v -0.461940 0.500000 0.191342
v -0.473465 -0.500000 0.160720
v -0.473465 0.500000 0.160720
v -0.482963 -0.500000 0.129410
v -0.482963 0.500000 0.129410
v -0.490393 -0.500000 0.097545
v -0.490393 0.500000 0.097545
v -0.495722 -0.500000 0.065263
v -0.495722 0.500000 0.065263
v -0.498929 -0.500000 0.032702
v -0.498929 0.500000 0.032702
v -0.500000 -0.500000 0.000000
v -0.500000 0.500000 0.000000
v -0.498929 -0.500000 -0.032702
v -0.498929 0.500000 -0.032702
v -0.495722 -0.500000 -0.065263
v -0.495722 0.500000 -0.065263
v -0.490393 -0.500000 -0.097545
v -0.490393 0.500000 -0.097545
v -0.482963 -0.500000 -0.129410
v -0.482963 0.500000 -0.129410
v -0.473465 -0.500000 -0.160720
v -0.473465 0.500000 -0.160720
v -0.461940 -0.500000 -0.191342
v -0.461940 0.500000 -0.191342
v -0.448436 -0.500000 -0.221144
v -0.448436 0.500000 -0.221144
v -0.433013 -0.500000 -0.250000
v -0.433013 0.500000 -0.250000
v -0.415735 -0.500000 -0.277785
v -0.415735 0.500000 -0.277785
v -0.396677 -0.500000 -0.304381
v -0.396677 0.500000 -0.304381
v -0.375920 -0.500000 -0.329673
v -0.375920 0.500000 -0.329673
v -0.353553 -0.500000 -0.353553
v -0.353553 0.500000 -0.353553
v -0.329673 -0.500000 -0.375920
v -0.329673 0.500000 -0.375920
v -0.304381 -0.500000 -0.396677
v -0.304381 0.500000 -0.396677
v -0.277785 -0.500000 -0.415735
v -0.277785 0.500000 -0.415735
v -0.250000 -0.500000 -0.433013
v -0.250000 0.500000 -0.433013
v -0.221144 -0.500000 -0.448436
v -0.221144 0.500000 -0.448436
v -0.191342 -0.500000 -0.461940
v -0.191342 0.500000 -0.461940
v -0.160720 -0.500000 -0.473465
v -0.160720 0.500000 -0.473465
v -0.129410 -0.500000 -0.482963
v -0.129410 0.500000 -0.482963
v -0.097545 -0.500000 -0.490393
v -0.097545 0.500000 -0.490393
v -0.065263 -0.500000 -0.495722
v -0.065263 0.500000 -0.495722
v -0.032702 -0.500000 -0.498929
v -0.032702 0.500000 -0.498929
vn 0.0327 -0.0000 -0.9995
vn 0.0980 -0.0000 -0.9952
vn 0.1629 -0.0000 -0.9866
vn 0.2271 -0.0000 -0.9739
vn 0.2903 -0.0000 -0.9569
vn 0.3522 -0.0000 -0.9359
vn 0.4127 -0.0000 -0.9109
vn 0.4714 -0.0000 -0.8819
vn 0.5281 -0.0000 -0.8492
vn 0.5825 -0.0000 -0.8128
vn 0.6344 -0.0000 -0.7730
vn 0.6836 -0.0000 -0.7299
vn 0.7299 -0.0000 -0.6836
vn 0.7730 -0.0000 -0.6344
vn 0.8128 -0.0000 -0.5825
vn 0.8492 -0.0000 -0.5281
vn 0.8819 -0.0000 -0.4714
vn 0.9109 -0.0000 -0.4127
vn 0.9359 -0.0000 -0.3522
vn 0.9569 -0.0000 -0.2903
vn 0.9739 -0.0000 -0.2271
vn 0.9866 -0.0000 -0.1629
vn 0.9952 -0.0000 -0.0980
vn 0.9995 -0.0000 -0.0327
vn 0.9995 -0.0000 0.0327
vn 0.9952 -0.0000 0.0980
vn 0.9866 -0.0000 0.1629
vn 0.9739 -0.0000 0.2271
vn 0.9569 -0.0000 0.2903
vn 0.9359 -0.0000 0.3522
vn 0.9109 -0.0000 0.4127
vn 0.8819 -0.0000 0.4714
vn 0.8492 -0.0000 0.5281
vn 0.8128 -0.0000 0.5825
vn 0.7730 -0.0000 0.6344
vn 0.7299 -0.0000 0.6836
vn 0.6836 -0.0000 0.7299
vn 0.6344 -0.0000 0.7730
vn 0.5825 -0.0000 0.8128
vn 0.5281 -0.0000 0.8492
vn 0.4714 -0.0000 0.8819
vn 0.4127 -0.0000 0.9109
vn 0.3522 -0.0000 0.9359
vn 0.2903 -0.0000 0.9569
vn 0.2271 -0.0000 0.9739
vn 0.1629 -0.0000 0.9866
vn 0.0980 -0.0000 0.9952
vn 0.0327 -0.0000 0.9995
vn -0.0327 -0.0000 0.9995
vn -0.0980 -0.0000 0.9952
vn -0.1629 -0.0000 0.9866
vn -0.2271 -0.0000 0.9739
vn -0.2903 -0.0000 0.9569
vn -0.3522 -0.0000 0.9359
vn -0.4127 -0.0000 0.9109
vn -0.4714 -0.0000 0.8819
vn -0.5281 -0.0000 0.8492
vn -0.5825 -0.0000 0.8128
vn -0.6344 -0.0000 0.7730
vn -0.6836 -0.0000 0.7299
vn -0.7299 -0.0000 0.6836
vn -0.7730 -0.0000 0.6344
vn -0.8128 -0.0000 0.5825
vn -0.8492 -0.0000 0.5281
vn -0.8819 -0.0000 0.4714
vn -0.9109 -0.0000 0.4127
vn -0.9359 -0.0000 0.3522
vn -0.9569 -0.0000 0.2903
vn -0.9739 -0.0000 0.2271
vn -0.9866 -0.0000 0.1629
vn -0.9952 -0.0000 0.0980
vn -0.9995 -0.0000 0.0327
vn -0.9995 -0.0000 -0.0327
vn -0.9952 -0.0000 -0.0980
vn -0.9866 -0.0000 -0.1629
vn -0.9739 -0.0000 -0.2271
vn -0.9569 -0.0000 -0.2903
vn -0.9359 -0.0000 -0.3522
vn -0.9109 -0.0000 -0.4127
vn -0.8819 -0.0000 -0.4714
vn -0.8492 -0.0000 -0.5281
vn -0.8128 -0.0000 -0.5825
vn -0.7730 -0.0000 -0.6344
vn -0.7299 -0.0000 -0.6836
vn -0.6836 -0.0000 -0.7299
vn -0.6344 -0.0000 -0.7730
vn -0.5825 -0.0000 -0.8128
vn -0.5281 -0.0000 -0.8492
vn -0.4714 -0.0000 -0.8819
vn -0.4127 -0.0000 -0.9109
vn -0.3522 -0.0000 -0.9359
vn -0.2903 -0.0000 -0.9569
vn -0.2271 -0.0000 -0.9739
vn -0.1629 -0.0000 -0.9866
vn -0.0000 1.0000 -0.0000
vn -0.0980 -0.0000 -0.9952
vn -0.0327 -0.0000 -0.9995
vn -0.0000 -1.0000 -0.0000
vt 1.000000 0.500000
vt 1.000000 1.000000
vt 0.989583 1.000000
vt 0.989583 0.500000
vt 0.979167 1.000000
vt 0.979167 0.500000
vt 0.968750 1.000000
vt 0.968750 0.500000
vt 0.958333 1.000000
vt 0.958333 0.500000
vt 0.947917 1.000000
vt 0.947917 0.500000
vt 0.937500 1.000000
vt 0.937500 0.500000
vt 0.927083 1.000000
vt 0.927083 0.500000
vt 0.916667 1.000000
vt 0.916667 0.500000
vt 0.906250 1.000000
vt 0.906250 0.500000
vt 0.895833 1.000000
vt 0.895833 0.500000
vt 0.885416 1.000000
vt 0.885416 0.500000
vt 0.875000 1.000000
vt 0.875000 0.500000
vt 0.864583 1.000000
vt 0.864583 0.500000
vt 0.854166 1.000000
vt 0.854166 0.500000
vt 0.843750 1.000000
vt 0.843750 0.500000
vt 0.833333 1.000000
vt 0.833333 0.500000
vt 0.822916 1.000000
vt 0.822916 0.500000
vt 0.812500 1.000000
vt 0.812500 0.500000
vt 0.802083 1.000000
vt 0.802083 0.500000
vt 0.791666 1.000000
vt 0.791666 0.500000
vt 0.781250 1.000000
vt 0.781250 0.500000
vt 0.770833 1.000000
vt 0.770833 0.500000
vt 0.760416 1.000000
vt 0.760416 0.500000
vt 0.750000 1.000000
vt 0.750000 0.500000
vt 0.739583 1.000000
vt 0.739583 0.500000
vt 0.729166 1.000000
vt 0.729166 0.500000
vt 0.718749 1.000000
vt 0.718749 0.500000
vt 0.708333 1.000000
vt 0.708333 0.500000
vt 0.697916 1.000000
vt 0.697916 0.500000
vt 0.687499 1.000000
vt 0.687499 0.500000
vt 0.677083 1.000000
vt 0.677083 0.500000
vt 0.666666 1.000000
vt 0.666666 0.500000
vt 0.656249 1.000000
vt 0.656249 0.500000
vt 0.645833 1.000000
vt 0.645833 0.500000
vt 0.635416 1.000000
vt 0.635416 0.500000
vt 0.624999 1.000000
vt 0.624999 0.500000
vt 0.614583 1.000000
vt 0.614583 0.500000
vt 0.604166 1.000000
vt 0.604166 0.500000
vt 0.593749 1.000000
vt 0.593749 0.500000
vt 0.583333 1.000000
vt 0.583333 0.500000
vt 0.572916 1.000000
vt 0.572916 0.500000
vt 0.562499 1.000000
vt 0.562499 0.500000
vt 0.552082 1.000000
vt 0.552082 0.500000
vt 0.541666 1.000000
vt 0.541666 0.500000
vt 0.531249 1.000000
vt 0.531249 0.500000
vt 0.520832 1.000000
vt 0.520832 0.500000
vt 0.510416 1.000000
vt 0.510416 0.500000
vt 0.499999 1.000000
vt 0.499999 0.500000
vt 0.489582 1.000000
vt 0.489582 0.500000
vt 0.479166 1.000000
vt 0.479166 0.500000
vt 0.468749 1.000000
vt 0.468749 0.500000
vt 0.458332 1.000000
vt 0.458332 0.500000
vt 0.447916 1.000000
vt 0.447916 0.500000
vt 0.437499 1.000000
vt 0.437499 0.500000
vt 0.427082 1.000000
vt 0.427082 0.500000
vt 0.416666 1.000000
vt 0.416666 0.500000
vt 0.406249 1.000000
vt 0.406249 0.500000
vt 0.395833 1.000000
vt 0.395833 0.500000
vt 0.385416 1.000000
vt 0.385416 0.500000
vt 0.374999 1.000000
vt 0.374999 0.500000
vt 0.364583 1.000000
vt 0.364583 0.500000
vt 0.354166 1.000000
vt 0.354166 0.500000
vt 0.343749 1.000000
vt 0.343749 0.500000
vt 0.333333 1.000000
vt 0.333333 0.500000
vt 0.322916 1.000000
vt 0.322916 0.500000
vt 0.312499 1.000000
vt 0.312499 0.500000
vt 0.302083 1.000000
vt 0.302083 0.500000
vt 0.291666 1.000000
vt 0.291666 0.500000
vt 0.281249 1.000000
vt 0.281249 0.500000
vt 0.270833 1.000000
vt 0.270833 0.500000
vt 0.260416 1.000000
vt 0.260416 0.500000
vt 0.249999 1.000000
vt 0.249999 0.500000
vt 0.239583 1.000000
vt 0.239583 0.500000
vt 0.229166 1.000000
vt 0.229166 0.500000
vt 0.218749 1.000000
vt 0.218749 0.500000
vt 0.208333 1.000000
vt 0.208333 0.500000
vt 0.197916 1.000000
vt 0.197916 0.500000
vt 0.187499 1.000000
vt 0.187499 0.500000
vt 0.177083 1.000000
vt 0.177083 0.500000
vt 0.166666 1.000000
vt 0.166666 0.500000
vt 0.156249 1.000000
vt 0.156249 0.500000
vt 0.145833 1.000000
vt 0.145833 0.500000
vt 0.135416 1.000000
vt 0.135416 0.500000
vt 0.124999 1.000000
vt 0.124999 0.500000
vt 0.114583 1.000000
vt 0.114583 0.500000
vt 0.104166 1.000000
vt 0.104166 0.500000
vt 0.093749 1.000000
vt 0.093749 0.500000
vt 0.083333 1.000000
vt 0.083333 0.500000
vt 0.072916 1.000000
vt 0.072916 0.500000
vt 0.062499 1.000000
vt 0.062499 0.500000
vt 0.052083 1.000000
vt 0.052083 0.500000
vt 0.041666 1.000000
vt 0.041666 0.500000
vt 0.031249 1.000000
vt 0.031249 0.500000
vt 0.020833 1.000000
vt 0.020833 0.500000
vt 0.265697 0.489486
vt 0.250000 0.490000
vt 0.234303 0.489486
vt 0.218674 0.487947
vt 0.203178 0.485388
vt 0.187883 0.481822
vt 0.172855 0.477263
vt 0.158156 0.471731
vt 0.143851 0.465249
vt 0.130000 0.457846
vt 0.116663 0.449553
vt 0.103897 0.440405
vt 0.091757 0.430442
vt 0.080294 0.419706
vt 0.069558 0.408243
vt 0.059595 0.396103
vt 0.050447 0.383337
vt 0.042154 0.370000
vt 0.034751 0.356149
vt 0.028269 0.341844
vt 0.022737 0.327145
vt 0.018178 0.312117
vt 0.014612 0.296822
vt 0.012053 0.281326
vt 0.010514 0.265697
vt 0.010000 0.250000
vt 0.010514 0.234303
vt 0.012053 0.218674
vt 0.014612 0.203178
vt 0.018178 0.187883
vt 0.022737 0.172855
vt 0.028269 0.158156
vt 0.034751 0.143851
vt 0.042154 0.130000
vt 0.050447 0.116663
vt 0.059595 0.103897
vt 0.069558 0.091757
vt 0.080294 0.080294
vt 0.091757 0.069558
vt 0.103897 0.059595
vt 0.116663 0.050447
vt 0.130000 0.042154
vt 0.143851 0.034751
vt 0.158156 0.028269
vt 0.172855 0.022737
vt 0.187883 0.018178
vt 0.203178 0.014612
vt 0.218674 0.012053
vt 0.234303 0.010514
vt 0.250000 0.010000
vt 0.265697 0.010514
vt 0.281326 0.012053
vt 0.296822 0.014612
vt 0.312117 0.018178
vt 0.327145 0.022737
vt 0.341844 0.028269
vt 0.356149 0.034751
vt 0.370000 0.042154
vt 0.383337 0.050447
vt 0.396103 0.059595
vt 0.408243 0.069558
vt 0.419706 0.080294
vt 0.430442 0.091757
vt 0.440405 0.103897
vt 0.449553 0.116663
vt 0.457846 0.130000
vt 0.465249 0.143851
vt 0.471731 0.158156
vt 0.477263 0.172855
vt 0.481822 0.187883
vt 0.485388 0.203178
vt 0.487947 0.218674
vt 0.489486 0.234303
vt 0.490000 0.250000
vt 0.489486 0.265697
vt 0.487947 0.281326
vt 0.485388 0.296822
vt 0.481822 0.312117
vt 0.477263 0.327145
vt 0.471731 0.341844
vt 0.465249 0.356149
vt 0.457846 0.370000
vt 0.449553 0.383337
vt 0.440405 0.396103
vt 0.430442 0.408243
vt 0.419706 0.419706
vt 0.408243 0.430442
vt 0.396103 0.440405
vt 0.383337 0.449553
vt 0.370000 0.457846
vt 0.356149 0.465249
vt 0.341844 0.471731
vt 0.327145 0.477263
vt 0.312117 0.481822
vt 0.296822 0.485388
vt 0.281326 0.487947
vt 0.010416 1.000000
vt 0.010416 0.500000
vt -0.000001 1.000000
vt -0.000001 0.500000
vt 0.750000 0.490000
vt 0.765697 0.489486
vt 0.781326 0.487947
vt 0.796822 0.485388
vt 0.812117 0.481822
vt 0.827145 0.477263
vt 0.841844 0.471731
vt 0.856149 0.465249
vt 0.870000 0.457846
vt 0.883337 0.449553
vt 0.896103 0.440405
vt 0.908243 0.430442
vt 0.919706 0.419706
vt 0.930442 0.408243
vt 0.940405 0.396103
vt 0.949553 0.383337
vt 0.957846 0.370000
vt 0.965249 0.356149
vt 0.971731 0.341844
vt 0.977263 0.327145
vt 0.981822 0.312117
vt 0.985388 0.296822
vt 0.987947 0.281326
vt 0.989486 0.265697
vt 0.990000 0.250000
vt 0.989486 0.234303
vt 0.987947 0.218674
vt 0.985388 0.203178
vt 0.981822 0.187883
vt 0.977263 0.172855
vt 0.971731 0.158156
vt 0.965249 0.143851
vt 0.957846 0.130000
vt 0.949553 0.116663
vt 0.940405 0.103897
vt 0.930442 0.091757
vt 0.919706 0.080294
vt 0.908243 0.069558
vt 0.896103 0.059595
vt 0.883337 0.050447
vt 0.870000 0.042154
vt 0.856149 0.034751
vt 0.841844 0.028269
vt 0.827145 0.022737
vt 0.812117 0.018178
vt 0.796822 0.014612
vt 0.781326 0.012053
vt 0.765697 0.010514
vt 0.750000 0.010000
vt 0.734303 0.010514
vt 0.718674 0.012053
vt 0.703178 0.014612
vt 0.687883 0.018178
vt 0.672855 0.022737
vt 0.658156 0.028269
vt 0.643851 0.034751
vt 0.630000 0.042154
vt 0.616663 0.050447
vt 0.603897 0.059595
vt 0.591757 0.069558
vt 0.580294 0.080294
vt 0.569558 0.091757
vt 0.559595 0.103897
vt 0.550447 0.116663
vt 0.542154 0.130000
vt 0.534751 0.143851
vt 0.528269 0.158156
vt 0.522737 0.172855
vt 0.518178 0.187883
vt 0.514612 0.203178
vt 0.512053 0.218674
vt 0.510514 0.234303
vt 0.510000 0.250000
vt 0.510514 0.265697
vt 0.512053 0.281326
vt 0.514612 0.296822
vt 0.518178 0.312117
vt 0.522737 0.327145
vt 0.528269 0.341844
vt 0.534751 0.356149
vt 0.542154 0.370000
vt 0.550447 0.383337
vt 0.559595 0.396103
vt 0.569558 0.408243
vt 0.580294 0.419706
vt 0.591757 0.430442
vt 0.603897 0.440405
vt 0.616663 0.449553
vt 0.630000 0.457846
vt 0.643851 0.465249
vt 0.658156 0.471731
vt 0.672855 0.477263
vt 0.687883 0.481822
vt 0.703178 0.485388
vt 0.718674 0.487947
vt 0.734303 0.489486
s 0
f 1/1/1 2/2/1 4/3/1 3/4/1
f 3/4/2 4/3/2 6/5/2 5/6/2
f 5/6/3 6/5/3 8/7/3 7/8/3
f 7/8/4 8/7/4 10/9/4 9/10/4
f 9/10/5 10/9/5 12/11/5 11/12/5
f 11/12/6 12/11/6 14/13/6 13/14/6
f 13/14/7 14/13/7 16/15/7 15/16/7
f 15/16/8 16/15/8 18/17/8 17/18/8
f 17/18/9 18/17/9 20/19/9 19/20/9
f 19/20/10 20/19/10 22/21/10 21/22/10
f 21/22/11 22/21/11 24/23/11 23/24/11
f 23/24/12 24/23/12 26/25/12 25/26/12
f 25/26/13 26/25/13 28/27/13 27/28/13
f 27/28/14 28/27/14 30/29/14 29/30/14
f 29/30/15 30/29/15 32/31/15 31/32/15
f 31/32/16 32/31/16 34/33/16 33/34/16
f 33/34/17 34/33/17 36/35/17 35/36/17
f 35/36/18 36/35/18 38/37/18 37/38/18
f 37/38/19 38/37/19 40/39/19 39/40/19
f 39/40/20 40/39/20 42/41/20 41/42/20
f 41/42/21 42/41/21 44/43/21 43/44/21
f 43/44/22 44/43/22 46/45/22 45/46/22
f 45/46/23 46/45/23 48/47/23 47/48/23
f 47/48/24 48/47/24 50/49/24 49/50/24
f 49/50/25 50/49/25 52/51/25 51/52/25
f 51/52/26 52/51/26 54/53/26 53/54/26
f 53/54/27 54/53/27 56/55/27 55/56/27
f 55/56/28 56/55/28 58/57/28 57/58/28
f 57/58/29 58/57/29 60/59/29 59/60/29
f 59/60/30 60/59/30 62/61/30 61/62/30
f 61/62/31 62/61/31 64/63/31 63/64/31
f 63/64/32 64/63/32 66/65/32 65/66/32
f 65/66/33 66/65/33 68/67/33 67/68/33
f 67/68/34 68/67/34 70/69/34 69/70/34
f 69/70/35 70/69/35 72/71/35 71/72/35
f 71/72/36 72/71/36 74/73/36 73/74/36
f 73/74/37 74/73/37 76/75/37 75/76/37
f 75/76/38 76/75/38 78/77/38 77/78/38
f 77/78/39 78/77/39 80/79/39 79/80/39
f 79/80/40 80/79/40 82/81/40 81/82/40
f 81/82/41 82/81/41 84/83/41 83/84/41
f 83/84/42 84/83/42 86/85/42 85/86/42
f 85/86/43 86/85/43 88/87/43 87/88/43
f 87/88/44 88/87/44 90/89/44 89/90/44
f 89/90/45 90/89/45 92/91/45 91/92/45
f 91/92/46 92/91/46 94/93/46 93/94/46
f 93/94/47 94/93/47 96/95/47 95/96/47
f 95/96/48 96/95/48 98/97/48 97/98/48
f 97/98/49 98/97/49 100/99/49 99/100/49
f 99/100/50 100/99/50 102/101/50 101/102/50
f 101/102/51 102/101/51 104/103/51 103/104/51
f 103/104/52 104/103/52 106/105/52 105/106/52
f 105/106/53 106/105/53 108/107/53 107/108/53
f 107/108/54 108/107/54 110/109/54 109/110/54
f 109/110/55 110/109/55 112/111/55 111/112/55
f 111/112/56 112/111/56 114/113/56 113/114/56
f 113/114/57 114/113/57 116/115/57 115/116/57
f 115/116/58 116/115/58 118/117/58 117/118/58
f 117/118/59 118/117/59 120/119/59 119/120/59
f 119/120/60 120/119/60 122/121/60 121/122/60
f 121/122/61 122/121/61 124/123/61 123/124/61
f 123/124/62 124/123/62 126/125/62 125/126/62
f 125/126/63 126/125/63 128/127/63 127/128/63
f 127/128/64 128/127/64 130/129/64 129/130/64
f 129/130/65 130/129/65 132/131/65 131/132/65
f 131/132/66 132/131/66 134/133/66 133/134/66
f 133/134/67 134/133/67 136/135/67 135/136/67
f 135/136/68 136/135/68 138/137/68 137/138/68
f 137/138/69 138/137/69 140/139/69 139/140/69
f 139/140/70 140/139/70 142/141/70 141/142/70
f 141/142/71 142/141/71 144/143/71 143/144/71
f 143/144/72 144/143/72 146/145/72 145/146/72
f 145/146/73 146/145/73 148/147/73 147/148/73
f 147/148/74 148/147/74 150/149/74 149/150/74
f 149/150/75 150/149/75 152/151/75 151/152/75
f 151/152/76 152/151/76 154/153/76 153/154/76
f 153/154/77 154/153/77 156/155/77 155/156/77
f 155/156/78 156/155/78 158/157/78 157/158/78
f 157/158/79 158/157/79 160/159/79 159/160/79
f 159/160/80 160/159/80 162/161/80 161/162/80
f 161/162/81 162/161/81 164/163/81 163/164/81
f 163/164/82 164/163/82 166/165/82 165/166/82
f 165/166/83 166/165/83 168/167/83 167/168/83
f 167/168/84 168/167/84 170/169/84 169/170/84
f 169/170/85 170/169/85 172/171/85 171/172/85
f 171/172/86 172/171/86 174/173/86 173/174/86
f 173/174/87 174/173/87 176/175/87 175/176/87
f 175/176/88 176/175/88 178/177/88 177/178/88
f 177/178/89 178/177/89 180/179/89 179/180/89
f 179/180/90 180/179/90 182/181/90 181/182/90
f 181/182/91 182/181/91 184/183/91 183/184/91
f 183/184/92 184/183/92 186/185/92 185/186/92
f 185/186/93 186/185/93 188/187/93 187/188/93
f 187/188/94 188/187/94 190/189/94 189/190/94
f 4/191/95 2/192/95 192/193/95 190/194/95 188/195/95 186/196/95 184/197/95 182/198/95 180/199/95 178/200/95 176/201/95 174/202/95 172/203/95 170/204/95 168/205/95 166/206/95 164/207/95 162/208/95 160/209/95 158/210/95 156/211/95 154/212/95 152/213/95 150/214/95 148/215/95 146/216/95 144/217/95 142/218/95 140/219/95 138/220/95 136/221/95 134/222/95 132/223/95 130/224/95 128/225/95 126/226/95 124/227/95 122/228/95 120/229/95 118/230/95 116/231/95 114/232/95 112/233/95 110/234/95 108/235/95 106/236/95 104/237/95 102/238/95 100/239/95 98/240/95 96/241/95 94/242/95 92/243/95 90/244/95 88/245/95 86/246/95 84/247/95 82/248/95 80/249/95 78/250/95 76/251/95 74/252/95 72/253/95 70/254/95 68/255/95 66/256/95 64/257/95 62/258/95 60/259/95 58/260/95 56/261/95 54/262/95 52/263/95 50/264/95 48/265/95 46/266/95 44/267/95 42/268/95 40/269/95 38/270/95 36/271/95 34/272/95 32/273/95 30/274/95 28/275/95 26/276/95 24/277/95 22/278/95 20/279/95 18/280/95 16/281/95 14/282/95 12/283/95 10/284/95 8/285/95 6/286/95
f 189/190/96 190/189/96 192/287/96 191/288/96
f 191/288/97 192/287/97 2/289/97 1/290/97
f 1/291/98 3/292/98 5/293/98 7/294/98 9/295/98 11/296/98 13/297/98 15/298/98 17/299/98 19/300/98 21/301/98 23/302/98 25/303/98 27/304/98 29/305/98 31/306/98 33/307/98 35/308/98 37/309/98 39/310/98 41/311/98 43/312/98 45/313/98 47/314/98 49/315/98 51/316/98 53/317/98 55/318/98 57/319/98 59/320/98 61/321/98 63/322/98 65/323/98 67/324/98 69/325/98 71/326/98 73/327/98 75/328/98 77/329/98 79/330/98 81/331/98 83/332/98 85/333/98 87/334/98 89/335/98 91/336/98 93/337/98 95/338/98 97/339/98 99/340/98 101/341/98 103/342/98 105/343/98 107/344/98 109/345/98 111/346/98 113/347/98 115/348/98 117/349/98 119/350/98 121/351/98 123/352/98 125/353/98 127/354/98 129/355/98 131/356/98 133/357/98 135/358/98 137/359/98 139/360/98 141/361/98 143/362/98 145/363/98 147/364/98 149/365/98 151/366/98 153/367/98 155/368/98 157/369/98 159/370/98 161/371/98 163/372/98 165/373/98 167/374/98 169/375/98 171/376/98 173/377/98 175/378/98 177/379/98 179/380/98 181/381/98 183/382/98 185/383/98 187/384/98 189/385/98 191/386/98
